<!DOCTYPE svg PUBLIC "-//W3C//DTD SVG 1.1//EN" "http://www.w3.org/Graphics/SVG/1.1/DTD/svg11.dtd">
<svg xmlns="http://www.w3.org/2000/svg" width="215" height="215">
    <style type="text/css">
        circle {
        fill: red;
        stroke: black;
        stroke-width: 1px;
        }
    </style>
    <circle cx="80" cy="20" r="10" />
    <circle cx="110" cy="20" r="10" />
    <circle cx="140" cy="20" r="10" />
    <circle cx="80" cy="50" r="10" />
    <circle cx="110" cy="50" r="10" />
    <circle cx="140" cy="50" r="10" />
    <circle cx="20" cy="80" r="10" />
    <circle cx="50" cy="80" r="10" />
    <circle cx="80" cy="80" r="10" />
    <circle cx="110" cy="80" r="10" />
    <circle cx="140" cy="80" r="10" />
    <circle cx="170" cy="80" r="10" />
    <circle cx="200" cy="80" r="10" />
    <circle cx="20" cy="110" r="10" />
    <circle cx="50" cy="110" r="10" />
    <circle cx="80" cy="110" r="10" />
    <circle cx="140" cy="110" r="10" />
    <circle cx="170" cy="110" r="10" />
    <circle cx="200" cy="110" r="10" />
    <circle cx="20" cy="140" r="10" />
    <circle cx="50" cy="140" r="10" />
    <circle cx="80" cy="140" r="10" />
    <circle cx="110" cy="140" r="10" />
    <circle cx="140" cy="140" r="10" />
    <circle cx="170" cy="140" r="10" />
    <circle cx="200" cy="140" r="10" />
    <circle cx="80" cy="170" r="10" />
    <circle cx="110" cy="170" r="10" />
    <circle cx="140" cy="170" r="10" />
    <circle cx="80" cy="200" r="10" />
    <circle cx="110" cy="200" r="10" />
    <circle cx="140" cy="200" r="10" />
</svg>